<?xml version="1.0" encoding="utf-8"?>
<!-- Generator: Adobe Illustrator 19.1.0, SVG Export Plug-In . SVG Version: 6.00 Build 0)  -->
<svg version="1.1" id="Layer_1" focusable="false" xmlns="http://www.w3.org/2000/svg" xmlns:xlink="http://www.w3.org/1999/xlink"
	 x="0px" y="0px" viewBox="-81 141 448 512" style="enable-background:new -81 141 448 512;" xml:space="preserve">
<path d="M237.3,373.4h-70.7v-70.7c0-8.7-7-15.7-15.7-15.7h-15.7c-8.7,0-15.7,7-15.7,15.7v70.7H48.7c-8.7,0-15.7,7-15.7,15.7v15.7
	c0,8.7,7,15.7,15.7,15.7h70.7v70.7c0,8.7,7,15.7,15.7,15.7h15.7c8.7,0,15.7-7,15.7-15.7v-70.7h70.7c8.7,0,15.7-7,15.7-15.7v-15.7
	C253,380.5,246,373.4,237.3,373.4z"/>
</svg>
